<svg version="1.1" id="Layer_1" xmlns="http://www.w3.org/2000/svg" xmlns:xlink="http://www.w3.org/1999/xlink" x="0px" y="0px"
	 width="100%" viewBox="0 0 1000 1000" enable-background="new 0 0 1000 1000" xml:space="preserve">
<path fill="#6785C1" opacity="1.000000" stroke="none" 
	d="
M919.000000,1001.000000 
	C614.166687,1001.000000 309.833344,1000.991943 5.500031,1001.093201 
	C1.750879,1001.094421 0.905755,1000.249084 0.906896,996.500000 
	C1.007416,666.166687 1.007416,335.833344 0.906896,5.500028 
	C0.905755,1.750898 1.750897,0.905753 5.500028,0.906894 
	C335.833344,1.007430 666.166687,1.007430 996.500000,0.906894 
	C1000.249084,0.905753 1001.094238,1.750897 1001.093140,5.500028 
	C1000.992615,335.833344 1000.992615,666.166687 1001.093140,996.500000 
	C1001.094299,1000.249084 1000.253540,1001.127991 996.499268,1001.100098 
	C970.833984,1000.909180 945.166687,1001.000000 919.000000,1001.000000 
z"/>
<path fill="#F8FAFC" opacity="1.000000" stroke="none" 
	d="
M478.519897,560.551392 
	C478.189911,560.679138 477.851196,560.710876 477.004333,560.695190 
	C476.496185,560.647766 476.511139,560.455505 476.519897,560.551392 
	C476.189911,560.679077 475.851196,560.710876 475.004333,560.695190 
	C474.496185,560.647766 474.511139,560.455505 474.519897,560.551392 
	C474.189911,560.679077 473.851196,560.710876 473.004333,560.695190 
	C472.496185,560.647766 472.511139,560.455505 472.519897,560.551392 
	C469.981415,560.765930 467.434174,560.884460 464.465637,560.953125 
	C460.140991,559.797852 459.433136,556.927368 459.438202,553.297791 
	C459.486969,518.330383 459.587860,483.362762 459.451324,448.395050 
	C459.440521,445.636749 458.800415,442.138672 463.521973,441.230743 
	C466.942810,441.150085 469.880615,441.198029 473.161102,441.299042 
	C473.471344,441.616669 473.462402,441.881500 473.476837,442.146576 
	C473.491272,442.411682 473.505035,442.323303 473.494751,441.616943 
	C473.810059,441.320740 474.148804,441.289001 474.995667,441.304688 
	C475.471344,441.616669 475.462372,441.881500 475.476837,442.146576 
	C475.491241,442.411682 475.505035,442.323303 475.494751,441.616943 
	C475.810059,441.320740 476.148804,441.289001 476.995667,441.304688 
	C477.471344,441.616669 477.462402,441.881500 477.476837,442.146576 
	C477.491272,442.411682 477.505035,442.323303 477.494751,441.616943 
	C477.810059,441.320740 478.148804,441.289001 478.995667,441.304688 
	C479.471344,441.616669 479.462372,441.881500 479.476837,442.146576 
	C479.491241,442.411682 479.505035,442.323303 479.494751,441.616943 
	C485.567413,441.358368 491.663483,441.364227 498.196198,441.408356 
	C498.502625,442.336578 498.857086,442.622864 499.596313,441.796082 
	C499.829773,441.270630 500.165680,441.251465 501.002686,441.292206 
	C501.471344,441.616669 501.462372,441.881500 501.476837,442.146576 
	C501.491272,442.411682 501.505035,442.323303 501.494751,441.616913 
	C501.810059,441.320740 502.148804,441.289001 502.995667,441.304688 
	C503.471344,441.616669 503.462402,441.881500 503.476837,442.146576 
	C503.491302,442.411682 503.505035,442.323303 503.494751,441.616913 
	C503.810059,441.320740 504.148804,441.289001 504.995667,441.304688 
	C505.471344,441.616669 505.462372,441.881500 505.476837,442.146576 
	C505.491272,442.411682 505.505035,442.323303 505.494751,441.616943 
	C505.798248,441.312592 506.125153,441.272736 506.945190,441.261841 
	C507.226746,442.224304 507.615143,442.628815 508.434784,441.990845 
	C508.319641,441.430145 508.560974,441.497406 508.557678,441.622620 
	C508.867432,442.028107 509.180542,442.308411 509.945282,442.148987 
	C510.396942,441.709290 510.404144,441.478485 510.518494,441.462524 
	C510.350677,442.393799 510.670471,442.715149 511.553375,441.839508 
	C512.609802,441.272949 513.725769,441.256073 515.172729,441.295685 
	C515.471375,441.616699 515.462341,441.881500 515.476807,442.146576 
	C515.491272,442.411713 515.505066,442.323334 515.494751,441.617004 
	C515.810059,441.320801 516.148804,441.289062 516.995667,441.304749 
	C517.471375,441.616699 517.462280,441.881500 517.476807,442.146576 
	C517.491272,442.411713 517.505066,442.323334 517.494751,441.617004 
	C517.810059,441.320801 518.148804,441.289062 518.995667,441.304749 
	C519.471375,441.616699 519.462341,441.881500 519.476807,442.146576 
	C519.491333,442.411713 519.505066,442.323334 519.494751,441.617004 
	C519.810059,441.320801 520.148804,441.289062 520.995667,441.304749 
	C521.471375,441.616699 521.462341,441.881500 521.476807,442.146576 
	C521.491272,442.411713 521.505066,442.323334 521.494751,441.617004 
	C523.665527,441.283966 525.859741,441.215424 528.519653,441.177124 
	C531.940552,442.558380 535.048218,441.306122 538.083984,441.754272 
	C543.446594,442.545868 548.787170,443.908661 553.606201,446.001190 
	C559.690063,448.642883 564.058228,453.631134 566.575012,460.178497 
	C573.600525,478.454742 569.108582,497.465759 570.564941,516.084473 
	C571.327087,525.828430 569.198242,534.994202 566.001892,543.945312 
	C564.203186,548.982666 560.115784,553.099365 555.490417,555.092041 
	C549.917908,557.492859 544.358765,560.948120 537.397339,560.607910 
	C534.416199,560.805237 531.824646,560.778809 528.864746,560.700073 
	C528.496338,560.647766 528.511230,560.455261 528.520020,560.551270 
	C528.190063,560.679077 527.851318,560.710815 527.004456,560.695190 
	C526.496338,560.647766 526.511230,560.455261 526.520020,560.551270 
	C526.190063,560.679077 525.851318,560.710876 525.004456,560.695190 
	C524.496338,560.647766 524.511230,560.455261 524.520020,560.551270 
	C523.406738,560.684753 522.284668,560.722229 520.829468,560.703735 
	C520.496338,560.647766 520.511230,560.455261 520.520020,560.551270 
	C520.190063,560.679077 519.851318,560.710876 519.004456,560.695190 
	C518.496338,560.647766 518.511230,560.455261 518.520020,560.551270 
	C510.052032,560.682495 501.575226,560.717712 492.797302,560.700317 
	C492.496185,560.647766 492.511139,560.455505 492.519897,560.551392 
	C492.189911,560.679077 491.851196,560.710876 491.004333,560.695190 
	C490.496185,560.647766 490.511139,560.455505 490.519897,560.551392 
	C489.406586,560.684814 488.284485,560.722290 486.829285,560.703796 
	C486.496185,560.647766 486.511139,560.455505 486.519897,560.551392 
	C486.189911,560.679138 485.851196,560.710876 485.004333,560.695190 
	C484.496185,560.647766 484.511139,560.455505 484.519897,560.551392 
	C484.189911,560.679077 483.851196,560.710876 483.004333,560.695190 
	C482.496185,560.647766 482.511139,560.455505 482.519897,560.551392 
	C481.406586,560.684814 480.284485,560.722351 478.829285,560.703796 
	C478.496185,560.647766 478.511139,560.455505 478.519897,560.551392 
z"/>
<path fill="#8EA4D1" opacity="1.000000" stroke="none" 
	d="
M791.924805,438.177856 
	C797.453491,438.000946 802.401428,438.376495 807.091003,440.484192 
	C808.337036,441.044159 809.756409,441.271240 810.991333,440.675537 
	C817.272339,437.645508 823.984680,438.191833 830.627380,438.183502 
	C847.624207,438.162201 864.621704,438.092468 881.617493,438.224121 
	C887.097900,438.266571 892.781921,438.067627 898.004272,439.411377 
	C906.259399,441.535522 913.244751,445.744446 918.190979,453.494995 
	C923.094055,461.177612 923.787903,469.334167 923.805969,477.847626 
	C923.856934,501.843048 923.832336,525.838623 923.819641,549.834167 
	C923.813232,561.892334 923.497986,562.240051 911.607727,563.596802 
	C910.122253,563.766357 908.614380,563.833252 907.119141,563.809143 
	C881.643250,563.398132 856.148071,564.763855 830.686646,562.942139 
	C820.881897,562.240601 814.341248,556.840393 809.129883,548.929871 
	C800.768311,536.237732 802.531555,522.254761 804.941223,508.849121 
	C807.307373,495.685791 817.700623,484.841095 833.260681,483.918549 
	C849.908020,482.931519 866.516235,482.736420 883.148010,483.925171 
	C885.725220,484.109406 888.745728,484.801697 889.777222,481.212067 
	C890.747742,477.834961 888.314026,472.682526 885.397461,471.632294 
	C883.313538,470.881866 881.150330,470.806915 878.979736,470.973145 
	C859.857361,472.437531 840.736511,472.439148 821.622864,470.865021 
	C819.311218,470.674683 816.713135,470.675812 814.797607,469.604858 
	C809.911804,466.873260 804.938538,467.263916 799.785522,468.006622 
	C790.836548,469.296448 781.848694,469.133270 772.874268,468.351135 
	C769.541931,468.060730 768.546143,469.284943 768.571228,472.612671 
	C768.778625,500.101654 768.875610,527.591858 768.874329,555.081665 
	C768.874023,561.239868 767.371521,562.352112 761.192261,563.080505 
	C755.200500,563.786804 749.288025,563.967041 743.282288,563.082275 
	C735.873291,561.990723 735.057678,561.299194 735.052490,553.539185 
	C735.035278,527.711304 735.044800,501.883453 735.042114,476.055573 
	C735.041260,468.148529 735.046326,468.301636 727.396423,468.699554 
	C718.739502,469.149811 710.067566,469.024445 701.507141,467.462677 
	C699.275269,467.055511 697.942200,466.883423 698.144775,469.792725 
	C699.650635,491.424164 698.451843,513.086182 698.811218,534.731689 
	C698.896973,539.895935 698.914001,545.065186 698.783997,550.227600 
	C698.717285,552.877258 698.267944,555.518311 697.970947,558.160950 
	C697.613159,561.344604 695.739563,562.770996 692.613525,562.932983 
	C666.652710,564.278320 640.690979,564.352478 614.724915,563.097107 
	C612.396301,562.984497 610.037598,562.748413 607.734070,562.979980 
	C591.276123,564.634399 576.253906,545.406006 578.688965,530.480652 
	C579.748108,523.988464 578.816711,517.193420 579.128479,510.551910 
	C579.550659,501.558197 584.554565,495.150452 591.427795,489.880707 
	C598.258850,484.643311 606.247375,483.201080 614.467285,483.265320 
	C628.945740,483.378448 643.447876,482.306641 657.907166,483.978516 
	C660.999146,484.336060 664.015137,484.365173 664.122925,479.762512 
	C664.247314,474.447784 662.713196,471.819244 658.379211,471.534912 
	C655.906555,471.372742 653.399536,471.841553 650.907593,471.847382 
	C636.077148,471.882111 621.244385,472.005127 606.416992,471.787811 
	C601.287415,471.712646 596.163086,470.811218 591.050781,470.171722 
	C586.474670,469.599274 584.374329,466.535614 584.196045,462.277557 
	C583.959290,456.622131 584.103882,450.950165 584.112305,445.285339 
	C584.117493,441.791687 585.783142,439.570770 589.300293,439.041962 
	C591.924866,438.647339 594.579651,438.223907 597.222290,438.214996 
	C617.384949,438.146759 637.551880,437.948029 657.709045,438.288361 
	C665.917114,438.426971 674.278076,438.383514 681.769287,443.292023 
	C686.033508,446.086121 689.896179,448.985931 692.520447,453.358795 
	C693.223816,454.530823 693.773560,455.879944 695.445496,455.513794 
	C697.152771,455.139893 697.826904,453.772278 697.920227,452.160828 
	C698.026062,450.333252 698.002319,448.498016 698.029602,446.666077 
	C698.122131,440.451233 699.216187,439.177460 705.465942,438.407898 
	C707.441162,438.164703 709.456116,438.186371 711.452881,438.185394 
	C738.114380,438.172485 764.775818,438.177063 791.924805,438.177856 
z"/>
<path fill="#9EB1D8" opacity="1.000000" stroke="none" 
	d="
M202.621338,444.224670 
	C206.368637,439.726685 210.848236,439.012970 215.941086,439.036713 
	C245.430054,439.174255 274.920013,439.109528 304.409637,439.096954 
	C308.606262,439.095154 312.776062,438.917938 315.813782,442.727020 
	C317.124237,444.370331 318.456635,443.698669 319.334564,442.067352 
	C320.739075,439.457581 323.130737,439.106018 325.738312,439.107635 
	C357.560303,439.127625 389.382324,439.169373 421.204193,439.111725 
	C425.804443,439.103394 427.998962,440.974670 427.902588,445.648560 
	C427.792664,450.977661 427.818939,456.311371 427.886047,461.641815 
	C427.942078,466.090515 425.760468,467.931122 421.415161,467.880524 
	C413.752533,467.791229 406.087830,467.883575 398.424011,467.887451 
	C390.366516,467.891541 389.810150,468.407776 389.807312,476.261780 
	C389.797974,502.086029 389.813995,527.910278 389.796082,553.734558 
	C389.790771,561.393860 388.368683,562.844604 380.790131,562.880310 
	C374.793732,562.908569 368.783722,563.047180 362.803802,562.710266 
	C357.117676,562.389893 355.244171,560.400208 355.252258,554.900940 
	C355.292633,527.417908 355.366913,499.934143 355.658813,472.453094 
	C355.701447,468.437500 353.494507,467.980927 350.698578,467.942810 
	C342.869537,467.836060 335.038086,467.922394 327.207886,467.876740 
	C325.554138,467.867096 323.023071,468.252899 322.392517,467.378052 
	C318.510345,461.991882 315.136841,464.729248 311.264435,467.287445 
	C309.923248,468.173492 307.703461,467.854797 305.883301,467.868652 
	C298.719604,467.923218 291.555115,467.867645 284.391113,467.898529 
	C278.457611,467.924103 277.816223,468.536133 277.810059,474.525116 
	C277.784210,499.682953 277.798706,524.840759 277.797058,549.998596 
	C277.796936,551.997864 277.740906,553.998230 277.789703,555.996155 
	C277.900665,560.539978 275.732330,562.819397 271.172760,562.823120 
	C264.509003,562.828613 257.844055,562.930481 251.181778,562.837402 
	C245.234055,562.754395 244.225464,561.721863 244.216858,555.726257 
	C244.179306,529.568787 244.198547,503.411316 244.196548,477.253845 
	C244.196457,475.920990 244.124619,474.584442 244.199860,473.256012 
	C244.415665,469.446106 242.683975,467.806854 238.851089,467.873016 
	C231.855713,467.993774 224.853455,467.769501 217.860199,467.940613 
	C212.763580,468.065277 207.882919,467.783813 203.387268,464.181030 
	C202.419128,463.728455 201.693634,463.325012 201.620728,462.708008 
	C200.900787,456.615936 200.096420,450.508240 202.621338,444.224670 
z"/>
<path fill="#95AAD4" opacity="1.000000" stroke="none" 
	d="
M202.888428,443.540527 
	C203.055099,450.410400 203.057556,456.872070 203.035248,463.692535 
	C202.967148,487.208252 202.924423,510.365173 202.880280,533.522095 
	C202.860748,543.773071 199.379974,552.493225 191.809799,559.603638 
	C187.235214,563.900330 181.187363,565.268494 175.787735,565.283386 
	C164.010925,565.315979 154.837860,560.160889 148.633896,549.146057 
	C144.358643,541.555603 139.885956,533.966675 135.767227,526.310242 
	C131.785812,518.908997 127.871277,511.390228 124.113701,503.829529 
	C120.676590,496.913544 117.780708,489.669159 113.342232,483.078400 
	C111.150040,484.988708 111.932312,487.300751 111.926201,489.320190 
	C111.861160,510.811737 111.895836,532.303528 111.876350,553.795227 
	C111.869209,561.669189 110.725876,562.856384 102.996147,562.938660 
	C97.165894,563.000732 91.333366,562.870728 85.503624,562.952515 
	C81.171959,563.013245 79.030144,561.141174 79.038788,556.689819 
	C79.102219,524.036133 79.026276,491.381866 79.201897,458.728882 
	C79.247688,450.215576 88.700493,440.959351 96.678833,438.775299 
	C103.666489,436.862427 110.069923,437.798798 116.735703,439.183502 
	C118.764778,439.604980 120.486679,440.401794 122.047585,441.742157 
	C129.358414,448.019958 134.112183,455.999146 138.195312,464.626709 
	C141.865753,472.382324 146.420990,479.716095 150.493530,487.285645 
	C152.998474,491.941528 155.146194,496.796661 157.783936,501.372314 
	C161.385422,507.619812 163.508163,514.673218 168.265823,520.812683 
	C169.547256,518.861206 169.086365,517.006836 169.089310,515.308228 
	C169.128052,492.816986 169.098373,470.325562 169.125870,447.834259 
	C169.134964,440.384155 170.349854,439.173981 177.869797,439.085632 
	C183.699844,439.017181 189.531998,439.131622 195.362137,439.067474 
	C198.637665,439.031433 201.252060,439.997131 202.888428,443.540527 
z"/>
<path fill="#C5D1E8" opacity="1.000000" stroke="none" 
	d="
M537.292969,561.006592 
	C541.451172,558.267029 546.398865,556.972595 551.171570,555.246643 
	C558.327148,552.659058 562.872192,547.949463 565.289185,540.524048 
	C572.397766,518.685242 568.771118,496.306000 568.403625,474.221069 
	C568.255127,465.298096 565.156799,455.618896 556.481018,449.516205 
	C551.473816,445.994049 545.649292,445.672760 540.157471,444.031494 
	C536.686279,442.994110 532.876526,443.518524 529.249512,441.538696 
	C532.537659,439.548187 536.286926,440.386017 540.396667,440.371521 
	C541.851746,441.041077 542.908081,440.688171 544.285400,440.461121 
	C545.252441,440.228607 545.897766,440.061462 546.915405,440.134094 
	C548.828735,441.257446 550.578979,441.962677 552.675842,442.820190 
	C566.158325,449.029297 571.817139,459.696869 571.995728,473.739014 
	C572.023132,475.891876 572.007263,478.045502 571.984131,480.600739 
	C571.978882,494.355377 571.980591,507.708038 571.979736,521.529175 
	C571.681396,528.940613 572.567200,535.768250 569.233948,542.633545 
	C565.367981,550.595947 560.092529,556.304871 551.664917,559.692749 
	C550.385803,560.052368 549.384460,559.946716 548.166626,560.523499 
	C547.846802,560.688599 547.866394,560.793457 547.890015,560.841187 
	C547.676880,561.260315 547.352478,561.515869 546.607178,561.598145 
	C545.679077,561.360779 545.070251,561.156189 544.119202,561.476196 
	C541.739929,561.456421 539.659058,561.318909 537.292969,561.006592 
z"/>
<path fill="#C5D1E8" opacity="1.000000" stroke="none" 
	d="
M463.742310,440.875244 
	C461.553009,443.850861 460.913269,447.041687 460.924866,450.710968 
	C461.031158,484.341064 461.006012,517.971680 460.958527,551.602051 
	C460.953918,554.857910 461.103302,557.930359 463.919281,560.571045 
	C462.993195,561.030334 461.942047,561.157532 460.491180,561.264893 
	C459.067352,561.674194 458.185822,561.422791 457.155151,560.261353 
	C456.479156,558.549255 456.510284,557.210144 456.510956,555.879639 
	C456.529510,518.566589 456.424805,481.253448 456.611664,443.460846 
	C456.917419,441.597809 457.664764,440.673553 459.557953,440.428497 
	C461.178802,440.535187 462.329193,440.591766 463.742310,440.875244 
z"/>
<path fill="#8EA4D1" opacity="1.000000" stroke="none" 
	d="
M459.799042,440.263184 
	C459.547760,440.907623 459.067108,441.336670 458.391724,441.914062 
	C456.741211,443.543854 457.014801,445.441010 457.013824,447.238708 
	C456.994446,483.089081 456.996613,518.939453 457.007263,554.789856 
	C457.007721,556.277954 456.903992,557.787842 457.890991,559.561523 
	C458.679993,560.246094 459.161804,560.559753 459.867554,561.059204 
	C457.200500,563.605835 456.018982,561.169983 454.877869,559.240356 
	C453.827209,557.463623 454.070190,555.365173 454.069824,553.372803 
	C454.063293,518.417480 454.020569,483.461975 454.131622,448.506989 
	C454.143341,444.818909 453.234100,439.938782 459.799042,440.263184 
z"/>
<path fill="#8EA4D1" opacity="1.000000" stroke="none" 
	d="
M572.189819,480.648041 
	C570.280029,478.240295 571.080261,475.173767 570.982056,472.239532 
	C570.650085,462.318207 562.747009,446.624817 552.287231,444.278076 
	C550.650574,442.845612 548.725342,442.622192 546.971069,441.432129 
	C545.950745,441.326660 545.256653,441.311890 544.215942,441.278809 
	C543.724243,441.038696 543.579224,440.816895 543.710571,440.309326 
	C546.081970,438.963654 548.184998,439.153412 550.263062,440.041656 
	C567.187866,447.276031 575.676758,461.727356 572.189819,480.648041 
z"/>
<path fill="#8EA4D1" opacity="1.000000" stroke="none" 
	d="
M549.774475,559.315063 
	C552.739502,556.518066 556.743774,556.597412 559.527405,553.935425 
	C566.947632,546.839355 570.876038,538.351929 570.989563,528.072998 
	C571.009399,526.278137 571.345825,524.486633 571.756592,522.345581 
	C576.967529,537.340088 565.955505,557.526428 550.266357,561.179199 
	C549.614441,560.661926 549.469360,560.185120 549.774475,559.315063 
z"/>
<path fill="#9EB1D8" opacity="1.000000" stroke="none" 
	d="
M543.587402,440.022461 
	C543.969727,440.229126 543.952393,440.434662 543.902161,440.950378 
	C542.869507,441.581604 541.889771,441.777313 540.960266,440.610199 
	C541.613770,440.274963 542.400818,440.148132 543.587402,440.022461 
z"/>
<path fill="#8EA4D1" opacity="1.000000" stroke="none" 
	d="
M545.792603,561.025085 
	C546.393127,560.718933 546.832092,560.735901 547.592346,560.820923 
	C547.789124,561.753845 547.468628,562.388672 546.210205,562.066040 
	C545.879639,561.760742 545.755371,561.554443 545.792603,561.025085 
z"/>
<path fill="#9EB1D8" opacity="1.000000" stroke="none" 
	d="
M545.747375,560.632935 
	C545.963623,560.912903 545.973022,561.123779 545.993164,561.650757 
	C545.512024,561.921692 545.020142,561.876343 544.174438,561.712463 
	C544.169373,560.875427 544.663208,560.399475 545.747375,560.632935 
z"/>
<path fill="#9EB1D8" opacity="1.000000" stroke="none" 
	d="
M549.719849,559.078247 
	C549.993591,559.452942 549.992737,559.914001 549.991028,560.721802 
	C549.506958,561.021973 549.023804,560.975342 548.193726,560.808655 
	C548.379639,560.180603 548.912476,559.672546 549.719849,559.078247 
z"/>
<path fill="#C5D1E8" opacity="1.000000" stroke="none" 
	d="
M476.520203,560.610352 
	C476.528656,560.647339 476.466919,560.397705 476.466919,560.397705 
	C476.466919,560.397705 476.590576,560.473206 476.543396,560.560486 
	C476.496185,560.647766 476.511719,560.573303 476.520203,560.610352 
z"/>
<path fill="#C5D1E8" opacity="1.000000" stroke="none" 
	d="
M521.479736,441.389526 
	C521.471313,441.352539 521.533081,441.602203 521.533081,441.602203 
	C521.533081,441.602203 521.409363,441.526794 521.456543,441.439484 
	C521.503784,441.352173 521.488159,441.426544 521.479736,441.389526 
z"/>
<path fill="#C5D1E8" opacity="1.000000" stroke="none" 
	d="
M519.479736,441.389526 
	C519.471313,441.352539 519.533081,441.602203 519.533081,441.602203 
	C519.533081,441.602203 519.409363,441.526794 519.456543,441.439484 
	C519.503784,441.352173 519.488159,441.426544 519.479736,441.389526 
z"/>
<path fill="#C5D1E8" opacity="1.000000" stroke="none" 
	d="
M517.479736,441.389526 
	C517.471313,441.352539 517.533081,441.602203 517.533081,441.602203 
	C517.533081,441.602203 517.409363,441.526794 517.456543,441.439484 
	C517.503784,441.352173 517.488159,441.426544 517.479736,441.389526 
z"/>
<path fill="#C5D1E8" opacity="1.000000" stroke="none" 
	d="
M528.520264,560.610291 
	C528.528809,560.647278 528.467041,560.397705 528.467041,560.397705 
	C528.467041,560.397705 528.590759,560.473145 528.543579,560.560425 
	C528.496338,560.647766 528.511780,560.573303 528.520264,560.610291 
z"/>
<path fill="#C5D1E8" opacity="1.000000" stroke="none" 
	d="
M526.520264,560.610291 
	C526.528809,560.647278 526.467041,560.397705 526.467041,560.397705 
	C526.467041,560.397705 526.590759,560.473145 526.543579,560.560425 
	C526.496338,560.647766 526.511780,560.573303 526.520264,560.610291 
z"/>
<path fill="#C5D1E8" opacity="1.000000" stroke="none" 
	d="
M524.520264,560.610291 
	C524.528809,560.647278 524.467041,560.397705 524.467041,560.397705 
	C524.467041,560.397705 524.590759,560.473145 524.543579,560.560425 
	C524.496338,560.647766 524.511780,560.573303 524.520264,560.610291 
z"/>
<path fill="#C5D1E8" opacity="1.000000" stroke="none" 
	d="
M520.520264,560.610291 
	C520.528809,560.647278 520.467041,560.397705 520.467041,560.397705 
	C520.467041,560.397705 520.590759,560.473145 520.543579,560.560425 
	C520.496338,560.647766 520.511780,560.573303 520.520264,560.610291 
z"/>
<path fill="#C5D1E8" opacity="1.000000" stroke="none" 
	d="
M518.520264,560.610291 
	C518.528809,560.647278 518.467041,560.397705 518.467041,560.397705 
	C518.467041,560.397705 518.590759,560.473145 518.543579,560.560425 
	C518.496338,560.647766 518.511780,560.573303 518.520264,560.610291 
z"/>
<path fill="#C5D1E8" opacity="1.000000" stroke="none" 
	d="
M492.520203,560.610352 
	C492.528656,560.647339 492.466919,560.397705 492.466919,560.397705 
	C492.466919,560.397705 492.590576,560.473206 492.543396,560.560486 
	C492.496185,560.647766 492.511719,560.573303 492.520203,560.610352 
z"/>
<path fill="#C5D1E8" opacity="1.000000" stroke="none" 
	d="
M490.520203,560.610352 
	C490.528656,560.647339 490.466919,560.397705 490.466919,560.397705 
	C490.466919,560.397705 490.590576,560.473206 490.543396,560.560486 
	C490.496185,560.647766 490.511719,560.573303 490.520203,560.610352 
z"/>
<path fill="#C5D1E8" opacity="1.000000" stroke="none" 
	d="
M486.520203,560.610352 
	C486.528656,560.647339 486.466919,560.397705 486.466919,560.397705 
	C486.466919,560.397705 486.590576,560.473206 486.543396,560.560486 
	C486.496185,560.647766 486.511719,560.573303 486.520203,560.610352 
z"/>
<path fill="#C5D1E8" opacity="1.000000" stroke="none" 
	d="
M484.520203,560.610352 
	C484.528656,560.647339 484.466919,560.397705 484.466919,560.397705 
	C484.466919,560.397705 484.590576,560.473206 484.543396,560.560486 
	C484.496185,560.647766 484.511719,560.573303 484.520203,560.610352 
z"/>
<path fill="#C5D1E8" opacity="1.000000" stroke="none" 
	d="
M482.520203,560.610352 
	C482.528656,560.647339 482.466919,560.397705 482.466919,560.397705 
	C482.466919,560.397705 482.590576,560.473206 482.543396,560.560486 
	C482.496185,560.647766 482.511719,560.573303 482.520203,560.610352 
z"/>
<path fill="#C5D1E8" opacity="1.000000" stroke="none" 
	d="
M478.520203,560.610352 
	C478.528656,560.647339 478.466919,560.397705 478.466919,560.397705 
	C478.466919,560.397705 478.590576,560.473206 478.543396,560.560486 
	C478.496185,560.647766 478.511719,560.573303 478.520203,560.610352 
z"/>
<path fill="#C5D1E8" opacity="1.000000" stroke="none" 
	d="
M511.341553,441.242981 
	C511.466248,441.640442 511.277924,441.795349 510.780884,441.600555 
	C510.776245,441.269867 510.961700,441.186401 511.341553,441.242981 
z"/>
<path fill="#C5D1E8" opacity="1.000000" stroke="none" 
	d="
M474.520203,560.610352 
	C474.528656,560.647339 474.466919,560.397705 474.466919,560.397705 
	C474.466919,560.397705 474.590576,560.473206 474.543396,560.560486 
	C474.496185,560.647766 474.511719,560.573303 474.520203,560.610352 
z"/>
<path fill="#C5D1E8" opacity="1.000000" stroke="none" 
	d="
M472.520203,560.610352 
	C472.528656,560.647339 472.466919,560.397705 472.466919,560.397705 
	C472.466919,560.397705 472.590576,560.473206 472.543396,560.560486 
	C472.496185,560.647766 472.511719,560.573303 472.520203,560.610352 
z"/>
<path fill="#C5D1E8" opacity="1.000000" stroke="none" 
	d="
M473.479797,441.389465 
	C473.471344,441.352478 473.533112,441.602203 473.533112,441.602203 
	C473.533112,441.602203 473.409363,441.526764 473.456573,441.439453 
	C473.503784,441.352112 473.488220,441.426483 473.479797,441.389465 
z"/>
<path fill="#C5D1E8" opacity="1.000000" stroke="none" 
	d="
M515.479736,441.389526 
	C515.471313,441.352539 515.533081,441.602203 515.533081,441.602203 
	C515.533081,441.602203 515.409363,441.526794 515.456543,441.439484 
	C515.503784,441.352173 515.488159,441.426544 515.479736,441.389526 
z"/>
<path fill="#C5D1E8" opacity="1.000000" stroke="none" 
	d="
M475.479797,441.389465 
	C475.471344,441.352478 475.533112,441.602203 475.533112,441.602203 
	C475.533112,441.602203 475.409363,441.526764 475.456573,441.439453 
	C475.503784,441.352112 475.488220,441.426483 475.479797,441.389465 
z"/>
<path fill="#C5D1E8" opacity="1.000000" stroke="none" 
	d="
M477.479797,441.389465 
	C477.471344,441.352478 477.533112,441.602203 477.533112,441.602203 
	C477.533112,441.602203 477.409363,441.526764 477.456573,441.439453 
	C477.503784,441.352112 477.488220,441.426483 477.479797,441.389465 
z"/>
<path fill="#C5D1E8" opacity="1.000000" stroke="none" 
	d="
M479.479797,441.389465 
	C479.471344,441.352478 479.533112,441.602203 479.533112,441.602203 
	C479.533112,441.602203 479.409363,441.526764 479.456573,441.439453 
	C479.503784,441.352112 479.488220,441.426483 479.479797,441.389465 
z"/>
<path fill="#C5D1E8" opacity="1.000000" stroke="none" 
	d="
M499.341553,441.242981 
	C499.466217,441.640442 499.277924,441.795319 498.780884,441.600525 
	C498.776245,441.269867 498.961700,441.186371 499.341553,441.242981 
z"/>
<path fill="#C5D1E8" opacity="1.000000" stroke="none" 
	d="
M501.479797,441.389465 
	C501.471344,441.352478 501.533112,441.602203 501.533112,441.602203 
	C501.533112,441.602203 501.409363,441.526764 501.456573,441.439453 
	C501.503784,441.352112 501.488220,441.426483 501.479797,441.389465 
z"/>
<path fill="#C5D1E8" opacity="1.000000" stroke="none" 
	d="
M503.479797,441.389465 
	C503.471344,441.352478 503.533112,441.602203 503.533112,441.602203 
	C503.533112,441.602203 503.409363,441.526764 503.456573,441.439453 
	C503.503784,441.352112 503.488220,441.426483 503.479797,441.389465 
z"/>
<path fill="#C5D1E8" opacity="1.000000" stroke="none" 
	d="
M505.479797,441.389465 
	C505.471344,441.352478 505.533112,441.602203 505.533112,441.602203 
	C505.533112,441.602203 505.409363,441.526764 505.456573,441.439453 
	C505.503784,441.352112 505.488220,441.426483 505.479797,441.389465 
z"/>
<path fill="#C5D1E8" opacity="1.000000" stroke="none" 
	d="
M508.192078,441.333923 
	C508.319641,441.430145 508.033722,441.729584 508.033722,441.729584 
	C508.033722,441.729584 507.624878,441.668976 507.531616,441.479889 
	C507.638702,441.173004 507.847412,441.155304 508.192078,441.333923 
z"/>
<path fill="#C5D1E8" opacity="1.000000" stroke="none" 
	d="
M510.186981,441.560913 
	C510.092102,441.772217 509.787292,441.835144 509.018402,441.822937 
	C509.028564,441.636078 509.502808,441.524323 510.186981,441.560913 
z"/>
<path fill="#6D8AC4" opacity="1.000000" stroke="none" 
	d="
M512.997803,535.981567 
	C505.673401,535.983826 498.845795,535.869141 492.024628,536.029846 
	C487.546600,536.135437 485.686249,534.166931 485.702423,529.761902 
	C485.770874,511.118622 485.674896,492.474640 485.771790,473.831573 
	C485.802032,468.016663 487.198395,466.789459 492.899506,466.779633 
	C504.717224,466.759277 516.535156,466.745880 528.352661,466.806824 
	C537.424927,466.853638 541.999268,471.046204 542.157410,480.177094 
	C542.399475,494.154785 542.419495,508.144165 542.133667,522.120361 
	C541.946472,531.277039 538.081482,535.050476 528.965576,535.678040 
	C523.826904,536.031799 518.654541,535.896545 512.997803,535.981567 
z"/>
<path fill="#F7F8FC" opacity="1.000000" stroke="none" 
	d="
M734.000000,441.282379 
	C754.156738,441.282410 773.813416,441.273132 793.470154,441.294739 
	C795.463440,441.296936 797.470337,441.371429 799.446716,441.611450 
	C803.206787,442.068146 805.165894,443.941010 804.381958,448.040802 
	C803.721069,451.497528 803.621704,455.058685 804.330505,458.481171 
	C805.307251,463.197388 803.035950,465.167053 798.874756,465.350098 
	C792.059387,465.649902 785.229370,465.619293 778.405334,465.715424 
	C776.573303,465.741272 774.740295,465.699188 772.908264,465.726501 
	C766.633362,465.820160 765.742493,466.661011 765.734863,473.050720 
	C765.703491,499.370697 765.723389,525.690735 765.716919,552.010742 
	C765.714844,560.393066 765.416504,560.685791 757.013611,560.715820 
	C753.682068,560.727783 750.348999,560.771851 747.019043,560.695923 
	C741.150696,560.562195 740.025696,559.457825 740.018982,553.577026 
	C739.988892,527.257019 740.009583,500.936981 739.999451,474.616974 
	C739.996460,466.905273 738.881104,465.783936 731.000488,465.732361 
	C723.004883,465.680023 715.006836,465.608398 707.013489,465.750061 
	C702.718628,465.826172 700.933716,463.881989 701.006897,459.738556 
	C701.080383,455.575409 701.093567,451.408173 700.997620,447.245880 
	C700.900940,443.055084 702.756226,441.191986 707.014038,441.252869 
	C715.841064,441.379059 724.671143,441.285217 734.000000,441.282379 
z"/>
<path fill="#C5D1E8" opacity="1.000000" stroke="none" 
	d="
M861.000000,440.876099 
	C871.808228,441.090485 882.127319,440.418243 892.417297,441.865662 
	C911.283020,444.519440 919.663513,453.099335 920.580872,471.382996 
	C921.989624,499.458069 921.024841,527.651184 921.130066,555.793945 
	C921.144592,559.670288 919.298950,561.131531 915.615417,561.122437 
	C889.137573,561.056824 862.659607,561.053894 836.181641,561.005981 
	C829.257080,560.993408 823.174438,558.222351 817.520142,554.635925 
	C810.547607,550.213318 808.260681,542.482666 807.453552,535.296570 
	C806.300537,525.030518 806.101685,514.677002 809.703552,504.268982 
	C813.371826,493.668732 823.533325,488.062958 833.632568,486.956573 
	C850.399963,485.119659 867.235474,486.387329 884.036865,486.038361 
	C885.699951,486.003815 887.388977,486.109863 889.019653,485.854767 
	C892.847839,485.255859 894.442200,483.161926 893.493591,479.151215 
	C891.326904,469.990479 887.667236,467.023529 878.095825,467.019745 
	C859.611450,467.012482 841.127075,467.031738 822.642761,467.000336 
	C815.669800,466.988495 814.042236,465.364716 813.968384,458.530853 
	C813.930542,455.034058 813.917297,451.535828 813.974243,448.039551 
	C814.068848,442.232758 815.255310,440.943054 821.031494,440.908936 
	C834.187256,440.831299 847.343811,440.879395 861.000000,440.876099 
z"/>
<path fill="#C5D1E8" opacity="1.000000" stroke="none" 
	d="
M686.795837,451.240051 
	C692.036316,457.056763 693.953735,463.924347 694.993103,471.036835 
	C696.394470,480.626770 695.962585,490.313690 695.964355,499.969910 
	C695.967712,517.968567 695.991577,535.967346 695.944641,553.965881 
	C695.929321,559.850281 694.826416,561.060669 688.915161,561.069519 
	C662.584534,561.108826 636.253540,561.091736 609.923218,560.967468 
	C601.726685,560.928833 594.799744,557.486572 588.821472,552.032532 
	C584.939270,548.490906 583.138062,543.608154 582.304260,538.823059 
	C580.269165,527.143616 579.712402,515.472168 584.060425,503.909149 
	C588.363525,492.465424 597.376892,488.253510 608.305542,486.956604 
	C624.897583,484.987610 641.595825,486.427948 658.241272,486.007446 
	C661.400452,485.927643 665.676086,487.209290 666.667480,482.783783 
	C667.648743,478.403259 667.435547,473.772095 663.482239,470.367310 
	C660.720215,467.988495 657.671509,466.912079 653.913147,466.942596 
	C635.583191,467.091583 617.251343,467.026459 598.920166,466.996704 
	C596.763550,466.993195 594.577576,466.919250 592.457520,466.565063 
	C588.886597,465.968506 586.852173,463.938232 586.955933,460.058472 
	C587.053955,456.394928 586.941895,452.726227 586.964722,449.060059 
	C587.007324,442.224396 588.206543,440.932373 595.189087,440.905914 
	C613.187500,440.837708 631.186401,440.886627 649.185059,440.872986 
	C655.518555,440.868195 661.834961,440.985046 668.113342,442.007812 
	C675.174988,443.158203 681.662231,445.397247 686.795837,451.240051 
z"/>
<path fill="#F8FAFC" opacity="1.000000" stroke="none" 
	d="
M210.721039,454.956116 
	C210.794083,441.775757 209.144119,441.826721 223.597672,441.876892 
	C250.084549,441.968811 276.571991,441.891724 303.059204,441.889709 
	C310.311768,441.889160 311.061768,442.602539 311.061584,449.916870 
	C311.061157,466.871735 312.468353,465.045593 296.231812,465.109436 
	C290.734558,465.131073 285.231781,464.984497 279.741425,465.184906 
	C273.970703,465.395477 272.479584,467.756989 272.706940,473.517792 
	C273.094208,483.330170 273.034882,493.162262 273.062408,502.986328 
	C273.109100,519.645386 273.090393,536.304749 273.071472,552.963989 
	C273.065033,558.651428 271.798492,559.956360 266.003082,560.100647 
	C262.007751,560.200134 258.005585,560.019775 254.009995,560.114563 
	C249.307190,560.226013 247.668137,558.076782 247.697250,553.387024 
	C247.859604,527.233032 247.788147,501.077576 247.789398,474.922607 
	C247.789841,465.590118 247.311935,465.124451 237.830399,465.111267 
	C231.999832,465.103180 226.169205,465.102600 220.338638,465.110443 
	C210.742477,465.123352 210.742477,465.127411 210.721039,454.956116 
z"/>
<path fill="#F5F7FB" opacity="1.000000" stroke="none" 
	d="
M334.058960,465.136658 
	C321.898651,465.137360 321.898651,465.137360 321.899353,453.246765 
	C321.900024,441.842896 321.900024,441.858704 333.079956,441.862396 
	C360.901855,441.871552 388.723755,441.853943 416.545654,441.871704 
	C424.287720,441.876617 424.624725,442.315277 424.354248,450.119110 
	C424.256317,452.945160 424.322296,455.784058 424.461884,458.609741 
	C424.725281,463.942688 423.823090,465.042603 418.313171,465.108429 
	C410.484070,465.201965 402.653046,465.120209 394.822998,465.151703 
	C386.139374,465.186646 385.309113,465.999542 385.305237,474.500061 
	C385.293274,500.656769 385.311920,526.813477 385.290619,552.970215 
	C385.285156,559.676697 384.818878,560.107056 378.234772,560.135315 
	C374.736206,560.150330 371.237061,560.181091 367.739075,560.135803 
	C362.062286,560.062256 360.952332,559.055542 360.928711,553.415405 
	C360.863831,537.921570 360.862488,522.427124 360.912323,506.933197 
	C360.949829,495.275574 361.029144,483.616913 361.247070,471.961670 
	C361.329926,467.531891 359.238770,465.392334 355.035309,465.297943 
	C348.208527,465.144623 341.377441,465.182281 334.058960,465.136658 
z"/>
<path fill="#DBE2F1" opacity="1.000000" stroke="none" 
	d="
M136.694214,469.264832 
	C141.647018,478.700287 146.430878,487.804413 151.215698,496.908020 
	C156.460953,506.887665 162.085144,516.672302 166.663010,526.995789 
	C167.206268,528.220825 167.894302,529.512756 169.556320,529.258789 
	C171.044418,529.031494 171.714096,527.847534 172.201096,526.539490 
	C173.285583,523.626587 173.047684,520.587463 172.808975,517.625549 
	C171.279953,498.653717 172.424881,479.653137 172.082703,460.670135 
	C172.004623,456.338409 172.165665,452.001984 172.067520,447.671112 
	C171.985077,444.032928 173.723785,441.909729 177.199524,441.488678 
	C182.997849,440.786316 188.819077,440.760162 194.628281,441.595886 
	C197.858841,442.060638 199.111877,443.904144 199.105469,447.084747 
	C199.047379,475.917725 199.475922,504.761597 198.752686,533.576965 
	C198.548782,541.700684 197.422134,550.541565 189.973938,556.655823 
	C180.906540,564.099243 164.804367,562.817444 156.307434,554.007690 
	C152.158066,549.705566 149.579620,544.474182 146.914017,539.436462 
	C137.839417,522.286133 128.576218,505.228699 119.999336,487.806122 
	C117.795029,483.328430 116.647789,477.978699 112.479210,474.496155 
	C111.236443,473.457916 110.251244,471.652527 108.313965,472.658997 
	C106.752022,473.470428 107.039391,475.222351 107.043289,476.708710 
	C107.073013,488.041687 107.130241,499.374664 107.143990,510.707672 
	C107.161369,525.040955 107.176666,539.374329 107.129204,553.707397 
	C107.110054,559.491333 105.857285,560.750305 100.087761,560.896301 
	C96.090355,560.997498 92.086746,560.989136 88.088783,560.900269 
	C82.433388,560.774658 81.118614,559.479065 81.100975,553.627625 
	C81.041183,533.794556 81.048676,513.961121 81.080353,494.127991 
	C81.096581,483.970886 80.497940,473.772491 81.926392,463.681030 
	C82.960846,456.372955 85.191994,449.493500 91.570732,444.758606 
	C101.317368,437.523804 118.530159,440.148926 125.697685,449.941711 
	C130.037445,455.870880 133.291855,462.389160 136.694214,469.264832 
z"/>
<path fill="#9EB1D8" opacity="1.000000" stroke="none" 
	d="
M546.847290,441.611694 
	C548.663208,441.262756 550.326233,441.968018 551.766113,443.872009 
	C550.063538,443.952789 548.327026,443.410614 546.847290,441.611694 
z"/>
<path fill="#9EB1D8" opacity="1.000000" stroke="none" 
	d="
M458.171478,559.469727 
	C455.958069,558.597107 456.037964,556.375061 456.037659,554.204834 
	C456.032990,518.664429 456.033051,483.124054 456.043274,447.583649 
	C456.043793,445.761261 455.967377,443.885376 457.877930,442.294067 
	C458.179596,481.043915 458.162201,520.025452 458.171478,559.469727 
z"/>
<path fill="#FDFEFE" opacity="1.000000" stroke="none" 
	d="
M873.997314,490.727661 
	C878.162903,490.720490 881.830322,490.772125 885.494934,490.692474 
	C889.681519,490.601501 894.445435,490.775085 896.590088,486.543823 
	C899.058105,481.674683 898.135803,476.377563 895.353577,471.721405 
	C892.391846,466.764893 888.466797,463.913239 881.982300,464.051514 
	C862.826843,464.459961 843.656860,464.202911 824.492554,464.179138 
	C818.538391,464.171753 817.827576,463.468933 817.737976,457.647034 
	C817.689331,454.481659 817.807068,451.313110 817.728943,448.148956 
	C817.634277,444.317169 819.471497,442.811798 823.227966,442.827850 
	C840.891663,442.903290 858.567444,442.487061 876.215271,443.023682 
	C885.650879,443.310547 894.738281,446.766510 903.960205,448.751099 
	C909.168579,449.871979 912.652832,455.004669 914.428528,461.057739 
	C923.415344,491.692566 917.418396,523.000977 919.154175,553.943420 
	C919.372803,557.841919 917.368591,559.200256 913.650879,559.189331 
	C889.821350,559.119324 865.953979,559.909851 842.181152,558.744568 
	C833.408264,558.314514 823.809448,556.072632 816.792358,548.930847 
	C814.566650,546.665588 813.276611,544.262024 812.734619,541.176758 
	C810.669861,529.423645 811.106750,517.698608 812.785645,505.961121 
	C813.593567,500.312378 821.020813,493.720978 826.654602,492.633026 
	C842.200989,489.630890 857.877197,491.115540 873.997314,490.727661 
z"/>
<path fill="#FAFBFD" opacity="1.000000" stroke="none" 
	d="
M682.925110,559.165405 
	C660.607849,559.167297 638.776184,559.416016 616.954773,559.052307 
	C607.403259,558.893127 598.238586,556.484863 590.662476,549.967407 
	C589.215454,548.722595 588.199402,547.347412 587.572205,545.555542 
	C582.551636,531.212891 582.379761,516.833740 587.623596,502.565887 
	C589.717651,496.868195 594.555969,493.618195 600.191895,492.208740 
	C609.085205,489.984619 618.159851,488.675415 627.391785,488.959229 
	C638.537598,489.301910 649.688538,488.463593 660.844910,489.558838 
	C668.883240,490.347961 673.010864,484.759735 670.626953,477.092834 
	C667.759338,467.870209 662.820435,464.218231 652.983887,464.204498 
	C634.821716,464.179108 616.659424,464.205963 598.497192,464.214844 
	C591.558533,464.218231 590.868469,463.637512 590.882446,456.987549 
	C590.916382,440.900055 589.354004,442.926544 605.036804,442.854889 
	C620.032471,442.786377 635.028748,442.860046 650.024658,442.833435 
	C659.642395,442.816376 668.940796,445.328430 677.893738,448.060516 
	C684.572327,450.098541 688.666321,456.100372 690.180298,463.764709 
	C693.997192,483.087219 692.895325,502.572021 693.054749,522.025940 
	C693.129883,531.189758 693.064941,540.354675 693.068604,549.519104 
	C693.072388,559.178894 693.075012,559.178894 682.925110,559.165405 
z"/>
<path fill="#FDFEFE" opacity="1.000000" stroke="none" 
	d="
M104.270355,471.676392 
	C104.161667,498.423920 104.120628,524.739258 104.069405,551.054565 
	C104.054489,558.716370 103.776611,559.012268 96.266083,559.000061 
	C82.690437,558.977966 83.946121,560.120789 83.934113,546.597046 
	C83.911926,521.612915 84.064636,496.627594 83.841957,471.645447 
	C83.778404,464.515778 85.877396,457.623291 89.182747,452.173859 
	C94.181679,443.932220 105.442062,438.649170 116.270973,446.278229 
	C122.457626,450.636749 126.165230,456.386139 129.691345,462.926514 
	C133.744614,470.444702 137.515091,478.139740 141.874771,485.517120 
	C146.238159,492.900787 149.998245,500.647858 153.873978,508.310913 
	C157.742615,515.959961 162.051651,523.374146 165.508286,531.254272 
	C166.858810,534.333069 170.311554,536.241150 173.876389,535.397339 
	C177.476181,534.545227 176.905441,531.064453 176.908691,528.290955 
	C176.939148,502.307465 176.917236,476.323975 176.936920,450.340485 
	C176.942139,443.437897 177.397858,443.027740 184.341782,442.994598 
	C184.508347,442.993805 184.674896,442.995026 184.841461,442.994659 
	C195.140182,442.972992 194.823563,442.968689 194.680344,453.486328 
	C194.421936,472.464691 194.638199,491.449036 194.548798,510.430389 
	C194.497864,521.248352 194.255890,532.065674 194.058578,542.882629 
	C193.941483,549.301270 186.202301,557.985718 179.872711,558.909668 
	C166.971207,560.792969 159.226761,554.613586 153.386673,544.593933 
	C148.669647,536.501099 143.699234,528.487305 139.820694,519.991211 
	C134.486023,508.305481 127.977409,497.246368 122.313034,485.742645 
	C119.595711,480.224060 118.032997,473.832581 113.066521,469.450470 
	C111.471901,468.043488 110.506073,465.807037 107.851852,466.319550 
	C105.161766,466.838928 104.922279,469.183105 104.270355,471.676392 
z"/>
<path fill="#C5D1E8" opacity="1.000000" stroke="none" 
	d="
M885.646240,537.767212 
	C872.518982,537.790344 859.851685,537.674194 847.188660,537.853760 
	C840.234802,537.952332 834.917419,536.043213 832.158875,528.987549 
	C829.648621,522.566833 832.037781,517.266113 835.251038,512.055420 
	C836.734131,509.650360 839.376953,509.279022 841.883606,509.267517 
	C857.547424,509.195404 873.213440,509.092987 888.875183,509.285126 
	C895.343567,509.364441 896.887512,511.348999 896.939453,517.972961 
	C896.966858,521.472412 896.986145,524.973083 896.924744,528.471741 
	C896.800659,535.537537 896.142700,536.259155 889.080322,537.363770 
	C888.093506,537.518188 887.098938,537.623413 885.646240,537.767212 
z"/>
<path fill="#7893C8" opacity="1.000000" stroke="none" 
	d="
M623.209167,536.180298 
	C616.158630,536.502502 610.651428,535.276672 607.948425,528.082031 
	C604.632751,519.256592 610.135742,510.581665 619.505737,510.560669 
	C633.142151,510.530090 646.778870,510.515747 660.415100,510.571045 
	C667.807312,510.601013 669.158386,512.015747 669.177979,519.299133 
	C669.186035,522.292419 669.252197,525.288818 669.143127,528.278442 
	C668.939758,533.850708 666.749512,536.099426 661.096802,536.144958 
	C648.625244,536.245544 636.152283,536.180664 623.209167,536.180298 
z"/>
<path fill="#6785C1" opacity="1.000000" stroke="none" 
	d="
M838.188599,530.241455 
	C837.531738,529.288147 837.176208,528.515564 836.813232,527.414917 
	C837.125671,524.613464 837.016785,522.133789 836.858643,519.286011 
	C837.024231,514.489929 839.592407,512.327454 843.782898,512.095703 
	C859.128784,511.247070 874.478638,511.025085 890.216797,512.277222 
	C891.102966,512.438416 891.482178,512.681396 891.831482,513.460571 
	C891.651917,517.773865 891.595581,521.756104 891.440186,525.733948 
	C891.212341,531.568542 889.564148,533.056213 883.742493,532.981934 
	C871.630920,532.827454 859.518738,532.719604 847.410828,533.042542 
	C844.071838,533.131531 841.252136,532.011353 838.188599,530.241455 
z"/>
<path fill="#7893C8" opacity="1.000000" stroke="none" 
	d="
M838.016724,530.351379 
	C848.356018,533.069031 859.056213,530.903870 869.635437,531.457336 
	C873.125610,531.639954 876.640137,531.369202 880.128845,531.565918 
	C888.618530,532.044739 889.873596,530.883972 889.989929,522.187256 
	C890.023132,519.699646 890.267212,517.214905 890.557983,514.344543 
	C891.162537,513.887573 891.698547,513.542419 892.043579,514.094482 
	C894.398987,517.863953 893.039490,530.129333 889.450623,533.961487 
	C873.991089,534.152832 858.961792,534.161743 843.463623,534.155945 
	C842.407776,534.041626 841.843567,533.874146 841.041504,533.485107 
	C839.889587,532.473999 839.017883,531.557983 838.016724,530.351379 
z"/>
<path fill="#9EB1D8" opacity="1.000000" stroke="none" 
	d="
M889.293274,534.256592 
	C893.295959,528.043579 892.280090,521.348633 890.956116,514.304016 
	C890.684204,513.603943 890.667114,513.247681 890.630493,512.626587 
	C891.652405,512.377991 892.524841,512.729919 893.103760,513.641113 
	C894.983704,516.599915 894.268921,530.362549 892.075684,533.214233 
	C891.451538,534.025757 890.681885,534.591675 889.293274,534.256592 
z"/>
<path fill="#7893C8" opacity="1.000000" stroke="none" 
	d="
M836.591125,519.242554 
	C838.421631,521.334229 838.334106,523.853088 837.030518,526.759216 
	C835.411682,524.651428 835.704407,522.120178 836.591125,519.242554 
z"/>
<path fill="#9EB1D8" opacity="1.000000" stroke="none" 
	d="
M840.883850,533.581787 
	C841.352966,533.502197 841.944580,533.614441 842.765503,533.933960 
	C842.221313,534.617188 841.559265,534.490662 840.883850,533.581787 
z"/>
</svg>